
<svg xmlns="http://www.w3.org/2000/svg" viewBox="0 0 440 280">
  <rect width="440" height="280" fill="#FFD60A"/>

  <!-- 上下の黒ストライプ (工事現場テープ風) -->
  <rect x="0" y="0" width="440" height="26" fill="#0A0A0A"/>
  <rect x="0" y="254" width="440" height="26" fill="#0A0A0A"/>
  <text x="22" y="18" font-family="Inter, Arial, sans-serif" font-size="13" font-weight="900" fill="#FFD60A" letter-spacing="2.5">ADJUSTER EXPENSE LOG</text>
  <text x="22" y="272" font-family="Inter, Arial, sans-serif" font-size="11" font-weight="700" fill="#FFD60A" letter-spacing="1.2">BUILT FOR CAT DEPLOYMENT · NO SUBSCRIPTION</text>

  <!-- 巨大数字 (IRS rate ヒーロー、focal point) -->
  <text x="22" y="120" font-family="Inter, Arial, sans-serif" font-size="78" font-weight="900" fill="#0A0A0A" letter-spacing="-3">$0.725</text>
  <text x="22" y="148" font-family="Inter, Arial, sans-serif" font-size="18" font-weight="800" fill="#0A0A0A" letter-spacing="0.5">/ mile · auto-calc</text>

  <!-- 警告三角 (CAT 業界メタファー) -->
  <polygon points="370,68 410,68 390,34" fill="#0A0A0A"/>
  <text x="390" y="62" font-family="Inter, Arial, sans-serif" font-size="22" font-weight="900" fill="#FFD60A" text-anchor="middle">!</text>

  <!-- カテゴリチップ (黒バー + 黄文字) -->
  <g font-family="Inter, Arial, sans-serif" font-size="13" font-weight="800" fill="#FFD60A">
    <rect x="22" y="180" width="86" height="26" fill="#0A0A0A" rx="3"/><text x="65" y="198" text-anchor="middle">PER DIEM</text>
    <rect x="116" y="180" width="62" height="26" fill="#0A0A0A" rx="3"/><text x="147" y="198" text-anchor="middle">HOTEL</text>
    <rect x="186" y="180" width="80" height="26" fill="#0A0A0A" rx="3"/><text x="226" y="198" text-anchor="middle">MILEAGE</text>
    <rect x="22" y="214" width="76" height="26" fill="#0A0A0A" rx="3"/><text x="60" y="232" text-anchor="middle">MEALS</text>
    <rect x="106" y="214" width="160" height="26" fill="#0A0A0A" rx="3"/><text x="186" y="232" text-anchor="middle">CLAIM # TAGGED</text>
  </g>

  <!-- 右側: claim# スタンプ風 (CAT 派遣感を強化) -->
  <g transform="translate(310,166) rotate(-8)">
    <rect x="0" y="0" width="120" height="68" fill="none" stroke="#0A0A0A" stroke-width="3" rx="4"/>
    <text x="60" y="26" font-family="Inter, Arial, sans-serif" font-size="11" font-weight="800" fill="#0A0A0A" text-anchor="middle" letter-spacing="1.5">CLAIM #</text>
    <text x="60" y="52" font-family="Courier New, monospace" font-size="20" font-weight="900" fill="#0A0A0A" text-anchor="middle">CAT-2026</text>
  </g>
</svg>